<?xml version="1.0" encoding="UTF-8" standalone="no"?>
<svg
   id="Layer_1"
   data-name="Layer 1"
   viewBox="0 0 200.1 166.88"
   version="1.1"
   sodipodi:docname="big-logo-branco.svg"
   inkscape:version="1.4 (e7c3feb100, 2024-10-09)"
   xmlns:inkscape="http://www.inkscape.org/namespaces/inkscape"
   xmlns:sodipodi="http://sodipodi.sourceforge.net/DTD/sodipodi-0.dtd"
   xmlns="http://www.w3.org/2000/svg"
   xmlns:svg="http://www.w3.org/2000/svg">
  <sodipodi:namedview
     id="namedview54"
     pagecolor="#ffffff"
     bordercolor="#666666"
     borderopacity="1.0"
     inkscape:pageshadow="2"
     inkscape:pageopacity="0.0"
     inkscape:pagecheckerboard="0"
     showgrid="false"
     inkscape:zoom="1.4787887"
     inkscape:cx="-106.8442"
     inkscape:cy="246.14741"
     inkscape:window-width="2752"
     inkscape:window-height="1081"
     inkscape:window-x="0"
     inkscape:window-y="0"
     inkscape:window-maximized="1"
     inkscape:current-layer="Layer_1"
     inkscape:showpageshadow="2"
     inkscape:deskcolor="#d1d1d1" />
  <defs
     id="defs37">
    <style
       id="style2">.cls-1{stroke:#333;stroke-miterlimit:10;stroke-width:6px;fill:url(#linear-gradient);}.cls-2{fill:url(#linear-gradient-2);}.cls-3{fill:#0d0e0e;}.cls-4{opacity:0.7;isolation:isolate;fill:url(#linear-gradient-3);}</style>
    <linearGradient
       id="linear-gradient"
       x1="100.05"
       y1="164.11"
       x2="100.05"
       y2="3.23"
       gradientUnits="userSpaceOnUse">
      <stop
         offset="0"
         id="stop4" />
      <stop
         offset="0.6"
         stop-color="#fff"
         id="stop6" />
      <stop
         offset="0.66"
         stop-color="#fff"
         id="stop8" />
      <stop
         offset="0.7"
         stop-color="#fafafa"
         id="stop10" />
      <stop
         offset="0.74"
         stop-color="#ececec"
         id="stop12" />
      <stop
         offset="0.78"
         stop-color="#d5d5d5"
         id="stop14" />
      <stop
         offset="0.83"
         stop-color="#b4b4b4"
         id="stop16" />
      <stop
         offset="0.88"
         stop-color="#8a8a8a"
         id="stop18" />
      <stop
         offset="0.93"
         stop-color="#575757"
         id="stop20" />
      <stop
         offset="0.98"
         stop-color="#1b1b1b"
         id="stop22" />
      <stop
         offset="1"
         id="stop24" />
    </linearGradient>
    <linearGradient
       id="linear-gradient-2"
       x1="106.56"
       y1="83.76"
       x2="195.62"
       y2="83.76"
       gradientUnits="userSpaceOnUse">
      <stop
         offset="0"
         id="stop27" />
      <stop
         offset="1"
         stop-color="#fff"
         id="stop29" />
    </linearGradient>
    <linearGradient
       id="linear-gradient-3"
       x1="100.54"
       y1="86.27"
       x2="100.54"
       y2="5.83"
       gradientUnits="userSpaceOnUse">
      <stop
         offset="0"
         stop-color="#fff"
         stop-opacity="0.6"
         id="stop32" />
      <stop
         offset="1"
         stop-color="#fff"
         stop-opacity="0"
         id="stop34" />
    </linearGradient>
  </defs>
  <path
     id="path43"
     style="fill:#cccccc;stroke-width:1.23169"
     class="cls-3"
     d="M 148.48438 29.029297 C 146.78975 29.02641 144.99156 29.173489 143.08398 29.492188 C 112.5628 34.591367 113.85742 70.138672 113.85742 70.138672 C 113.85742 70.138672 113.85601 85.867528 128.52539 93.824219 C 140.74372 100.85714 147.77793 93.257236 148.97266 92.0625 C 150.1674 90.867765 175.01019 59.779739 171.01953 118.81445 C 171.01953 118.81445 179.75238 109.3056 180.30664 86.642578 C 180.8609 63.979556 166.27734 62.576172 166.27734 62.576172 C 166.27734 62.576172 159.8474 60.962331 147.0625 74.769531 C 134.2776 88.576731 133.39063 87.960938 133.39062 87.960938 C 133.39062 87.960938 129.78265 90.510236 129.35156 84.105469 C 128.92047 77.700702 127.55259 58.302558 147.0625 47.808594 C 166.5724 37.314629 176.07031 63.03125 176.07031 63.03125 C 176.07031 63.03125 173.90369 29.072598 148.48438 29.029297 z M 93.417969 43.724609 A 10.370796 13.831834 77.92 0 0 89.84375 44.128906 A 10.370796 13.831834 77.92 0 0 78.488281 57.164062 A 10.370796 13.831834 77.92 0 0 94.183594 64.410156 A 10.370796 13.831834 77.92 0 0 105.53906 51.375 A 10.370796 13.831834 77.92 0 0 93.417969 43.724609 z M 29.080078 48.117188 C 29.080078 48.117188 20.334911 57.636404 19.792969 80.287109 C 19.251027 102.93781 33.796875 104.28125 33.796875 104.28125 C 33.796875 104.28125 40.226818 105.88142 53.011719 92.074219 C 65.796619 78.267019 66.695312 78.908203 66.695312 78.908203 C 66.695312 78.908203 70.303883 76.371222 70.722656 82.763672 C 71.14143 89.156123 72.533942 108.62952 53.011719 119.07422 C 33.489496 129.51892 24.017578 103.84961 24.017578 103.84961 C 24.017578 103.84961 26.480774 142.47553 57.001953 137.38867 C 87.523132 132.30181 86.230469 96.744141 86.230469 96.744141 C 86.230469 96.744141 86.267475 81.027603 71.548828 73.058594 C 59.330503 66.025667 52.308616 73.624979 51.101562 74.832031 C 49.894511 76.039084 25.089415 107.11495 29.080078 48.117188 z M 96.416016 67.015625 A 10.580193 10.580193 0 0 0 86.673828 78.367188 A 10.407747 10.407747 0 0 0 87.154297 80.830078 C 87.154297 80.830078 93.312963 105.31524 126.44531 106.10352 C 126.44531 106.09122 107.32808 92.457903 107.77148 76.753906 A 10.580193 10.580193 0 0 0 96.416016 67.015625 z " />
</svg>
